<?xml version="1.0" standalone="no"?>
<!DOCTYPE svg PUBLIC "-//W3C//DTD SVG 20010904//EN"
 "http://www.w3.org/TR/2001/REC-SVG-20010904/DTD/svg10.dtd">
<svg version="1.0" xmlns="http://www.w3.org/2000/svg"
 width="1152.000000pt" height="1152.000000pt" viewBox="0 0 1152.000000 1152.000000"
 preserveAspectRatio="xMidYMid meet">
<metadata>
Created by potrace 1.14, written by Peter Selinger 2001-2017
</metadata>
<g transform="translate(0.000000,1152.000000) scale(0.100000,-0.100000)"
fill="#000000" stroke="none">
<path d="M1475 10109 c-114 -23 -195 -67 -276 -150 -56 -58 -123 -160 -117
-179 1 -3 -4 -15 -10 -26 -6 -12 -13 -34 -16 -50 -12 -67 -18 -120 -16 -139 0
-11 1 -27 0 -35 0 -8 0 -26 1 -40 1 -25 1 -38 -2 -134 -1 -30 2 -59 5 -65 4
-6 3 -11 -3 -11 -6 0 -7 -11 -3 -27 4 -16 6 -41 5 -58 -3 -36 -5 -151 -4 -220
0 -27 0 -73 0 -102 -1 -28 2 -56 6 -62 3 -6 2 -11 -4 -11 -6 0 -7 -11 -2 -27
7 -30 6 -91 -3 -100 -2 -3 -1 -15 4 -28 5 -13 6 -25 3 -28 -10 -10 -8 -127 2
-131 6 -3 5 -5 -2 -5 -8 -1 -9 -10 -5 -28 4 -16 6 -41 5 -58 -2 -16 -3 -40 -3
-52 1 -44 0 -54 -1 -107 -1 -30 2 -59 5 -65 4 -6 3 -11 -3 -11 -6 0 -7 -11 -2
-27 7 -30 6 -91 -3 -100 -2 -3 -1 -15 4 -28 5 -13 6 -25 3 -28 -10 -10 -8
-127 2 -131 6 -3 5 -5 -2 -5 -8 -1 -9 -10 -5 -28 4 -16 6 -41 5 -58 -3 -35 -5
-148 -4 -220 1 -27 0 -73 0 -102 -1 -28 2 -56 6 -62 3 -6 2 -11 -4 -11 -6 0
-7 -11 -3 -27 4 -16 6 -41 5 -58 -6 -63 -4 -295 2 -305 3 -5 2 -10 -4 -10 -6
0 -7 -11 -2 -27 5 -16 5 -37 1 -48 -4 -11 -4 -34 1 -52 4 -18 3 -33 -1 -33 -5
0 -5 -13 0 -29 4 -16 6 -32 3 -35 -3 -3 -5 -45 -4 -93 1 -49 2 -94 2 -100 -3
-87 -2 -123 3 -132 4 -6 3 -11 -3 -11 -6 0 -7 -11 -3 -27 4 -16 6 -41 5 -58
-6 -63 -4 -295 2 -305 3 -5 2 -10 -4 -10 -6 0 -7 -11 -2 -27 5 -16 5 -37 1
-48 -4 -11 -4 -34 1 -52 4 -18 3 -33 -1 -33 -5 0 -5 -13 0 -29 4 -16 6 -32 3
-35 -3 -3 -5 -45 -4 -93 1 -49 2 -94 2 -100 -3 -87 -2 -123 3 -132 4 -6 3 -11
-3 -11 -6 0 -7 -11 -3 -27 4 -16 6 -41 5 -58 -3 -36 -5 -151 -4 -220 0 -27 0
-73 0 -102 -1 -28 2 -56 6 -62 3 -6 2 -11 -4 -11 -6 0 -7 -11 -2 -27 7 -30 6
-91 -3 -100 -2 -3 -1 -15 4 -28 5 -13 6 -25 3 -28 -10 -10 -8 -127 2 -131 6
-3 5 -5 -2 -5 -8 -1 -9 -10 -5 -28 4 -16 6 -41 5 -58 -2 -16 -3 -40 -3 -52 1
-44 0 -54 -1 -107 -1 -30 2 -59 5 -65 4 -6 3 -11 -3 -11 -6 0 -7 -11 -2 -27 7
-30 6 -91 -3 -100 -2 -3 -1 -15 4 -28 5 -13 6 -25 3 -28 -10 -10 -8 -127 2
-131 6 -3 5 -5 -2 -5 -8 -1 -9 -10 -5 -28 4 -16 6 -41 5 -58 -3 -35 -5 -148
-4 -220 1 -27 0 -73 0 -102 -1 -28 2 -56 6 -62 3 -6 2 -11 -4 -11 -6 0 -7 -11
-3 -27 4 -16 6 -41 5 -58 -6 -63 -4 -295 2 -305 3 -5 2 -10 -4 -10 -6 0 -7
-11 -2 -27 5 -16 5 -37 1 -48 -4 -11 -4 -34 1 -52 4 -18 3 -33 -1 -33 -5 0 -5
-13 0 -29 4 -16 6 -32 3 -35 -3 -3 -5 -45 -4 -93 1 -49 2 -94 2 -100 -3 -87
-2 -123 3 -132 4 -6 2 -11 -4 -11 -6 0 -9 -4 -5 -9 3 -5 7 -43 9 -83 9 -156
55 -259 163 -365 48 -46 153 -120 153 -108 0 3 14 -2 31 -11 37 -19 54 -23
139 -32 85 -9 2251 -7 2309 2 218 36 405 204 447 401 9 41 14 77 16 117 3 46
8 52 36 49 6 -1 12 6 13 16 4 105 0 1758 -5 1788 -9 55 -49 133 -90 175 -38
40 -123 86 -176 96 -68 13 -230 7 -230 -9 0 -4 -4 -6 -8 -3 -13 8 -103 -42
-140 -77 -56 -54 -95 -147 -100 -236 -2 -42 -3 -83 -3 -91 2 -27 1 -64 -3 -84
-1 -11 0 -37 4 -58 4 -21 4 -41 0 -43 -4 -3 -4 -20 0 -39 4 -19 4 -53 0 -75
-4 -23 -4 -59 0 -81 4 -22 4 -43 0 -45 -4 -3 -4 -21 0 -40 4 -19 4 -35 0 -35
-4 0 -4 -18 0 -40 4 -22 4 -43 0 -45 -4 -3 -4 -21 0 -40 4 -19 5 -35 1 -35 -4
0 -5 -19 -2 -42 4 -24 4 -67 1 -96 -4 -29 -2 -55 2 -58 5 -3 6 -10 3 -15 -4
-5 -6 -46 -5 -92 1 -45 0 -100 -1 -122 -1 -22 -1 -47 -1 -55 0 -8 1 -40 2 -70
2 -77 -8 -154 -25 -187 -8 -15 -15 -34 -15 -40 0 -7 -4 -13 -10 -13 -5 0 -10
-5 -10 -10 0 -20 -83 -90 -138 -117 -52 -26 -68 -28 -186 -30 -71 -1 -130 -4
-132 -6 -2 -2 -29 0 -59 3 -31 3 -58 2 -61 -2 -3 -5 -10 -6 -15 -3 -10 7 -338
9 -344 3 -3 -2 -30 -1 -60 2 -31 3 -58 2 -61 -2 -3 -5 -10 -6 -15 -3 -7 5
-315 9 -344 4 -14 -2 -66 2 -87 7 -10 2 -26 6 -37 8 -37 8 -97 45 -138 84 -45
44 -98 136 -89 158 3 8 1 14 -3 14 -5 0 -8 16 -7 36 1 20 -2 38 -6 40 -5 3 -3
14 2 25 8 13 7 19 0 19 -8 0 -8 6 0 20 8 14 8 20 0 20 -6 0 -8 5 -4 11 10 17
11 51 2 77 -4 13 -4 22 2 22 6 0 6 9 0 25 -5 14 -6 25 -2 25 4 0 7 16 7 35 0
19 -4 35 -8 35 -4 0 -3 9 3 19 7 13 7 22 0 26 -7 4 -7 12 0 24 5 10 7 21 4 24
-10 10 -11 42 -2 60 6 11 5 17 -2 17 -8 0 -8 6 0 20 8 14 8 20 0 20 -8 0 -8 6
0 20 8 14 8 20 0 20 -7 0 -8 6 -2 18 9 19 8 53 -2 70 -3 6 -2 13 3 17 7 4 7
15 1 30 -6 16 -6 25 0 25 6 0 6 10 0 26 -6 14 -7 23 -2 21 4 -3 7 19 7 49 0
30 -2 54 -5 54 -7 0 -4 66 5 79 3 6 1 11 -5 11 -8 0 -8 6 0 20 8 14 8 20 0 20
-8 0 -8 6 0 20 8 14 8 20 0 20 -6 0 -8 5 -4 11 10 17 11 51 2 77 -4 13 -4 22
2 22 6 0 6 9 0 25 -5 14 -6 25 -2 25 4 0 7 16 7 35 0 19 -4 35 -8 35 -4 0 -3
9 3 19 7 13 7 22 0 26 -7 4 -7 12 0 24 5 10 7 21 4 24 -10 10 -11 42 -2 60 6
11 5 17 -2 17 -8 0 -8 6 0 20 8 14 8 20 0 20 -8 0 -8 6 0 20 8 14 8 20 0 20
-8 0 -8 6 0 20 8 14 8 20 0 20 -8 0 -8 6 0 20 8 14 8 20 0 20 -8 0 -8 6 0 20
8 14 8 20 0 20 -8 0 -8 6 0 20 8 14 8 20 0 20 -6 0 -8 5 -4 11 10 17 11 51 2
77 -4 13 -4 22 2 22 6 0 6 9 0 25 -5 14 -6 25 -2 25 4 0 7 16 7 35 0 19 -4 35
-8 35 -4 0 -3 9 3 19 7 13 7 22 0 26 -7 4 -7 12 0 24 5 10 7 21 4 24 -10 10
-11 42 -2 60 6 11 5 17 -2 17 -8 0 -8 6 0 20 8 14 8 20 0 20 -8 0 -8 6 0 20 8
14 8 20 0 20 -6 0 -8 4 -5 10 11 18 14 50 4 55 -5 4 -5 14 1 26 7 12 7 19 1
19 -6 0 -8 6 -5 13 9 24 10 98 1 104 -4 2 -4 10 2 17 6 7 6 17 1 26 -5 8 -5
21 0 30 5 9 5 22 0 30 -5 8 -5 21 1 31 6 11 5 20 -1 24 -7 4 -7 13 0 26 8 13
7 19 0 19 -6 0 -8 4 -5 10 9 14 10 93 2 107 -4 6 -3 14 3 18 6 4 7 12 1 24 -6
10 -6 23 -1 31 5 8 5 21 1 29 -5 9 -5 25 -1 36 4 11 4 28 -1 37 -6 10 -5 19 1
23 6 4 6 15 0 30 -6 16 -6 25 0 25 6 0 6 10 0 26 -6 14 -7 23 -2 21 4 -3 7 19
7 49 0 30 -2 54 -5 54 -7 0 -4 66 5 79 3 6 1 11 -5 11 -8 0 -8 6 0 20 8 14 8
20 0 20 -8 0 -8 6 0 20 8 14 8 20 0 20 -6 0 -8 5 -4 11 10 17 11 51 2 77 -4
13 -4 22 2 22 6 0 6 9 0 25 -5 14 -6 25 -2 25 4 0 7 16 7 35 0 19 -4 35 -8 35
-4 0 -3 9 3 19 7 13 7 22 0 26 -7 4 -7 12 0 24 5 10 7 21 4 24 -10 10 -11 42
-2 60 6 11 5 17 -2 17 -8 0 -8 6 0 20 8 14 8 20 0 20 -8 0 -8 6 0 20 8 14 8
20 0 20 -7 0 -8 6 -2 18 9 19 8 53 -2 70 -3 6 -2 13 3 17 7 4 7 15 1 30 -6 16
-6 25 0 25 6 0 6 10 0 26 -6 14 -7 23 -2 21 4 -3 7 19 7 49 0 30 -3 54 -6 54
-4 0 -3 16 1 35 4 20 4 38 -1 41 -5 3 -5 13 1 25 7 12 7 19 1 19 -6 0 -8 6 -5
13 9 24 10 98 1 104 -4 2 -4 10 2 17 6 7 6 17 1 26 -5 8 -5 21 0 30 5 9 5 22
0 30 -5 8 -5 21 1 31 6 11 5 20 -1 24 -7 4 -7 13 0 26 8 13 7 19 0 19 -6 0 -8
4 -5 10 9 14 10 93 2 107 -4 6 -3 14 3 18 6 4 7 12 1 24 -6 10 -6 23 -1 31 5
8 5 21 0 29 -4 9 -9 18 -11 21 -1 3 3 15 10 28 8 15 8 22 1 22 -8 0 -8 6 0 20
8 14 8 20 0 20 -8 0 -8 6 0 20 8 14 8 20 0 20 -6 0 -8 5 -4 11 10 17 11 51 2
77 -4 13 -4 22 2 22 6 0 6 9 0 25 -5 14 -6 25 -2 25 4 0 7 16 7 35 0 19 -4 35
-8 35 -4 0 -3 9 3 19 7 13 7 22 0 26 -7 4 -7 12 0 24 5 10 7 21 4 24 -10 10
-11 42 -2 60 6 11 5 17 -2 17 -8 0 -8 6 0 20 8 14 8 20 0 20 -8 0 -8 6 0 20 8
14 8 20 0 20 -8 0 -8 6 0 20 8 14 8 20 0 20 -8 0 -8 6 0 20 8 14 8 20 0 20 -8
0 -8 6 0 20 8 14 8 20 0 20 -8 0 -8 6 0 20 8 14 8 20 0 20 -6 0 -8 5 -4 11 10
17 11 51 2 77 -4 13 -4 22 2 22 6 0 6 9 0 25 -5 14 -6 25 -2 25 4 0 7 16 7 35
0 19 -4 35 -8 35 -4 0 -3 9 3 19 7 13 7 22 0 26 -7 4 -7 12 0 24 5 10 7 21 4
24 -10 10 -11 42 -2 60 6 11 5 17 -2 17 -8 0 -8 6 0 20 8 14 8 20 0 20 -8 0
-8 6 0 20 8 14 8 20 0 20 -7 0 -8 6 -2 18 9 19 8 53 -2 70 -3 6 -2 13 3 17 7
4 7 15 1 30 -6 16 -6 25 0 25 6 0 6 9 0 24 -5 13 -6 26 -3 30 3 3 6 25 8 49 4
76 35 145 93 203 29 30 59 54 67 54 8 0 15 4 15 9 0 9 63 26 88 24 6 0 12 2
12 6 0 8 1206 5 1249 -4 48 -9 119 -48 161 -87 39 -36 89 -129 94 -174 2 -16
4 -29 5 -29 1 0 4 -283 5 -630 2 -346 6 -643 8 -660 15 -89 118 -198 223 -234
52 -18 209 -21 263 -5 23 6 42 10 42 7 0 -2 7 3 16 11 8 9 22 16 29 16 23 0
109 91 133 140 12 25 25 63 28 85 4 22 7 420 7 885 1 890 1 887 -44 995 -7 17
-12 33 -11 38 1 4 -2 7 -8 7 -5 0 -10 7 -10 15 0 8 -4 15 -10 15 -5 0 -10 5
-10 11 0 6 -6 16 -12 23 -7 7 -27 28 -43 47 -17 19 -46 46 -65 60 -38 29 -130
81 -130 74 0 -2 -15 2 -32 10 -18 7 -58 16 -88 21 -30 4 -557 8 -1170 8 -990
1 -1124 -1 -1195 -15z"/>
<path d="M5858 6926 c-32 -7 -58 -10 -58 -8 0 2 -7 -1 -15 -8 -8 -7 -15 -10
-15 -6 0 19 -150 -72 -191 -116 -42 -45 -97 -137 -104 -177 -2 -9 -4 -17 -5
-18 -2 -2 -4 -7 -5 -13 -1 -5 -3 -11 -5 -12 -5 -7 -23 -204 -21 -238 1 -8 1
-26 0 -40 0 -14 0 -32 0 -40 1 -8 1 -26 0 -40 0 -14 0 -32 0 -40 1 -8 1 -26 1
-40 -5 -131 -4 -190 1 -190 4 0 3 -16 -1 -34 -4 -19 -6 -37 -3 -40 2 -2 6 -27
9 -55 5 -52 46 -156 58 -144 3 3 6 0 6 -7 0 -7 15 -27 33 -43 118 -108 317
-113 436 -10 94 80 114 139 117 348 1 88 7 175 13 193 15 48 55 113 87 142 36
32 104 74 104 65 0 -4 7 -1 17 6 13 11 105 14 503 14 l487 0 53 -25 c90 -42
155 -119 180 -211 15 -54 15 -955 0 -1009 -31 -117 -144 -220 -256 -234 -21
-3 -350 -6 -731 -6 -419 0 -715 -5 -750 -11 -125 -21 -225 -71 -293 -146 -39
-42 -86 -113 -75 -113 4 0 2 -6 -4 -14 -18 -21 -42 -111 -44 -166 -1 -27 -4
-50 -7 -50 -7 0 -4 -1935 4 -1999 13 -113 57 -215 125 -292 40 -46 146 -109
206 -124 17 -4 39 -9 50 -12 50 -12 78 -14 200 -15 124 0 294 7 380 17 22 3
66 7 98 9 57 5 128 14 177 22 14 3 48 7 75 9 28 3 61 7 75 10 14 3 50 8 80 11
52 4 95 11 95 14 0 1 14 3 30 4 37 4 113 15 140 20 11 2 43 7 70 11 28 4 64 9
80 11 17 3 44 6 60 8 17 2 53 7 80 11 28 5 68 9 90 9 l40 1 0 -62 c0 -34 3
-65 7 -69 9 -9 369 -8 411 2 92 20 193 98 219 170 7 19 15 34 18 34 5 0 9 19
14 78 1 13 6 26 11 30 12 8 14 4172 2 4172 -4 0 -6 3 -5 8 1 4 -2 32 -7 62 -4
30 -7 58 -7 63 1 4 -2 7 -8 7 -6 0 -9 3 -9 8 1 4 0 9 -1 12 -1 3 -3 13 -5 22
-10 51 -146 208 -181 208 -6 0 -17 7 -24 15 -6 8 -15 14 -18 13 -4 0 -10 1
-14 2 -5 1 -11 3 -15 5 -5 1 -15 4 -23 7 -88 32 -91 32 -1040 34 -720 2 -959
-1 -1002 -10z m740 -2570 c7 -4 12 -4 12 1 0 12 134 10 142 -2 5 -7 8 -7 8 0
0 10 480 12 532 2 115 -23 217 -119 247 -234 12 -43 17 -1210 6 -1267 -3 -16
-10 -37 -15 -46 -5 -10 -6 -20 -3 -24 3 -3 1 -6 -5 -6 -6 0 -14 -9 -17 -20 -9
-28 -71 -91 -117 -119 -49 -29 -75 -34 -190 -35 -54 -1 -98 -3 -98 -6 0 -10
-85 -5 -92 5 -5 7 -8 7 -8 0 0 -6 -65 -11 -173 -12 -94 -1 -251 -2 -347 -3
-100 -2 -186 2 -200 8 -14 5 -28 10 -33 10 -22 3 -82 39 -112 68 -43 41 -85
108 -85 133 0 11 -4 22 -8 25 -5 3 -9 288 -9 633 0 532 2 635 15 673 38 113
137 198 255 218 52 9 280 8 295 -2z"/>
<path d="M9511 3474 c-94 -24 -231 -88 -276 -130 -14 -13 -28 -24 -31 -24 -8
0 -124 -124 -124 -132 0 -5 -8 -16 -18 -26 -26 -26 -88 -159 -108 -232 -32
-118 -27 -330 11 -435 88 -247 272 -428 505 -498 269 -81 561 -11 755 180 70
69 106 114 135 170 14 26 28 50 33 51 4 2 7 12 7 21 0 10 3 21 8 25 4 4 8 12
8 17 1 5 3 11 4 14 1 3 3 8 5 13 1 4 4 14 8 22 26 68 38 247 22 340 -25 157
-110 320 -223 428 -58 56 -134 112 -151 112 -6 0 -11 3 -11 8 0 4 -12 12 -27
19 -97 42 -130 54 -157 59 -17 2 -42 7 -56 10 -14 3 -71 7 -127 8 -79 2 -122
-2 -192 -20z"/>
</g>
</svg>
